<svg width="195" height="157" viewBox="0 0 195 157" fill="none" xmlns="http://www.w3.org/2000/svg">
<ellipse cx="5.43122" cy="5.43122" rx="5.43122" ry="5.43122" transform="matrix(0.706633 0.70758 -0.707581 0.706632 81.3887 36.0503)" fill="#21A9FF"/>
<ellipse cx="4.2878" cy="4.2878" rx="4.2878" ry="4.2878" transform="matrix(0.706633 0.70758 -0.707581 0.706632 73.6914 29.9609)" fill="#9BD9FE"/>
<ellipse cx="3.14439" cy="3.14439" rx="3.14439" ry="3.14439" transform="matrix(0.706633 0.70758 -0.707581 0.706632 64.5957 30.1572)" fill="#1177FF"/>
<ellipse cx="83.0282" cy="56.0281" rx="5.43122" ry="5.43121" transform="rotate(0.0383989 83.0282 56.0281)" fill="#9BD9FE"/>
<ellipse cx="72.1365" cy="56.0211" rx="4.28781" ry="4.2878" transform="rotate(0.0383989 72.1365 56.0211)" fill="#21A9FF"/>
<ellipse cx="64.7009" cy="61.4478" rx="3.14439" ry="3.14439" transform="rotate(0.0383989 64.7009 61.4478)" fill="#1177FF"/>
<ellipse cx="5.43121" cy="5.43122" rx="5.43121" ry="5.43122" transform="matrix(0.707581 -0.706632 0.706633 0.70758 85.2051 63.5542)" fill="#1177FF"/>
<ellipse cx="4.2878" cy="4.2878" rx="4.2878" ry="4.2878" transform="matrix(0.707581 -0.706632 0.706633 0.70758 79.1152 71.252)" fill="#9BD9FE"/>
<ellipse cx="3.14439" cy="3.14439" rx="3.14439" ry="3.14439" transform="matrix(0.707581 -0.706632 0.706633 0.70758 79.3115 80.3481)" fill="#21A9FF"/>
<ellipse cx="105.184" cy="61.9152" rx="5.43121" ry="5.43122" transform="rotate(-89.9616 105.184 61.9152)" fill="#1177FF"/>
<ellipse cx="105.177" cy="72.8069" rx="4.2878" ry="4.28781" transform="rotate(-89.9616 105.177 72.8069)" fill="#21A9FF"/>
<ellipse cx="110.603" cy="80.243" rx="3.14439" ry="3.14439" transform="rotate(-89.9616 110.603 80.243)" fill="#9BD9FE"/>
<ellipse cx="5.43122" cy="5.43122" rx="5.43122" ry="5.43122" transform="matrix(-0.706633 -0.70758 0.707581 -0.706632 112.711 59.7388)" fill="#21A9FF"/>
<ellipse cx="4.2878" cy="4.2878" rx="4.2878" ry="4.2878" transform="matrix(-0.706633 -0.70758 0.707581 -0.706632 120.408 65.8281)" fill="#9BD9FE"/>
<ellipse cx="3.14439" cy="3.14439" rx="3.14439" ry="3.14439" transform="matrix(-0.706633 -0.70758 0.707581 -0.706632 129.504 65.6323)" fill="#1177FF"/>
<ellipse cx="111.071" cy="39.7595" rx="5.43122" ry="5.43121" transform="rotate(-179.962 111.071 39.7595)" fill="#9BD9FE"/>
<ellipse cx="121.963" cy="39.7669" rx="4.28781" ry="4.2878" transform="rotate(-179.962 121.963 39.7669)" fill="#21A9FF"/>
<ellipse cx="129.399" cy="34.3408" rx="3.14439" ry="3.14439" transform="rotate(-179.962 129.399 34.3408)" fill="#1177FF"/>
<ellipse cx="5.43122" cy="5.43122" rx="5.43122" ry="5.43122" transform="matrix(-0.707581 0.706632 -0.706633 -0.70758 108.894 32.2324)" fill="#1177FF"/>
<ellipse cx="4.2878" cy="4.2878" rx="4.2878" ry="4.2878" transform="matrix(-0.707581 0.706632 -0.706633 -0.70758 114.983 24.5347)" fill="#9BD9FE"/>
<ellipse cx="3.14439" cy="3.14439" rx="3.14439" ry="3.14439" transform="matrix(-0.707581 0.706632 -0.706633 -0.70758 114.787 15.439)" fill="#21A9FF"/>
<ellipse cx="88.9157" cy="33.8719" rx="5.43121" ry="5.43122" transform="rotate(90.0384 88.9157 33.8719)" fill="#1177FF"/>
<ellipse cx="88.9232" cy="22.9802" rx="4.2878" ry="4.28781" transform="rotate(90.0384 88.9232 22.9802)" fill="#21A9FF"/>
<ellipse cx="83.4971" cy="15.5446" rx="3.14439" ry="3.14439" transform="rotate(90.0384 83.4971 15.5446)" fill="#9BD9FE"/>
<path d="M0 132.069V93.207H8.69645V125.003H37.123V132.069H0Z" fill="#00214D"/>
<path d="M50.6679 132.069C47.4792 132.069 45.142 131.272 43.6564 129.678C42.2069 128.083 41.4822 126.018 41.4822 123.482V104.078H49.3634V122.558C49.3634 124.732 50.4505 125.819 52.6246 125.819H63.93C66.1041 125.819 67.1911 124.732 67.1911 122.558V104.078H75.0723V123.482C75.0723 126.018 74.3295 128.083 72.8438 129.678C71.3944 131.272 69.0754 132.069 65.8867 132.069H50.6679Z" fill="#00214D"/>
<path d="M80.767 132.069V104.078H117.02C120.209 104.078 122.546 104.875 124.032 106.469C125.518 108.027 126.26 110.093 126.26 112.665V132.069H118.379V113.644C118.379 111.433 117.256 110.328 115.009 110.328H107.454V132.069H99.5731V110.328H88.6482V132.069H80.767Z" fill="#00214D"/>
<path d="M131.988 132.069V104.078H139.869V132.069H131.988Z" fill="#00214D"/>
<path d="M145.842 132.069V104.078H170.246C173.435 104.078 175.754 104.875 177.203 106.469C178.689 108.027 179.432 110.093 179.432 112.665V132.069H171.551V113.589C171.551 111.415 170.464 110.328 168.289 110.328H153.723V132.069H145.842Z" fill="#00214D"/>
<path d="M185.12 132.069V104.078H193.001V132.069H185.12Z" fill="#00214D"/>
<path d="M185.091 99.4576V93.3157H193.081V99.4576H185.091Z" fill="#00214D"/>
<path d="M131.879 99.4576V93.3157H139.869V99.4576H131.879Z" fill="#00214D"/>
<path d="M105.634 150.232C103.715 150.232 102.219 149.76 101.145 148.815C100.071 147.855 99.534 146.452 99.534 144.605C99.534 142.744 100.071 141.34 101.145 140.395C102.219 139.436 103.715 138.956 105.634 138.956H111.003C112.263 138.956 113.223 139.257 113.881 139.859C114.554 140.446 114.891 141.29 114.891 142.393C114.891 144.641 113.595 145.765 111.003 145.765H102.885C103.185 147.097 104.102 147.762 105.634 147.762H114.332V150.232H105.634ZM105.634 141.426C104.159 141.426 103.25 142.049 102.906 143.295H110.853C111.139 143.295 111.361 143.209 111.519 143.037C111.691 142.865 111.776 142.629 111.776 142.328C111.776 141.727 111.469 141.426 110.853 141.426H105.634ZM116.827 150.125V139.064H126.471C127.731 139.064 128.647 139.379 129.22 140.009C129.807 140.625 130.101 141.441 130.101 142.457V150.125H126.986V142.822C126.986 141.963 126.557 141.534 125.698 141.534H119.941V150.125H116.827ZM138.019 150.232C136.1 150.232 134.604 149.76 133.53 148.815C132.456 147.855 131.919 146.452 131.919 144.605C131.919 142.744 132.456 141.34 133.53 140.395C134.604 139.436 136.1 138.956 138.019 138.956H143.388C144.648 138.956 145.607 139.257 146.266 139.859C146.939 140.446 147.276 141.29 147.276 142.393C147.276 144.641 145.98 145.765 143.388 145.765H135.269C135.57 147.097 136.486 147.762 138.019 147.762H146.717V150.232H138.019ZM138.019 141.426C136.544 141.426 135.634 142.049 135.291 143.295H143.238C143.524 143.295 143.746 143.209 143.903 143.037C144.075 142.865 144.161 142.629 144.161 142.328C144.161 141.727 143.853 141.426 143.238 141.426H138.019ZM149.212 150.125V139.064H157.674C158.92 139.064 159.836 139.379 160.423 140.009C161.01 140.625 161.304 141.441 161.304 142.457V144.755H158.147V142.844C158.147 141.985 157.717 141.555 156.858 141.555H152.369V150.125H149.212ZM166.053 154.958V152.488H172.539C173.398 152.488 173.828 152.051 173.828 151.177V150.125H169.103C167.184 150.125 165.688 149.652 164.614 148.707C163.54 147.762 163.003 146.395 163.003 144.605C163.003 142.801 163.54 141.426 164.614 140.481C165.688 139.536 167.184 139.064 169.103 139.064H176.942V151.564C176.942 152.581 176.649 153.397 176.062 154.013C175.475 154.643 174.558 154.958 173.313 154.958H166.053ZM169.103 147.655H173.828V141.534H169.103C168.172 141.534 167.456 141.792 166.955 142.307C166.468 142.808 166.225 143.574 166.225 144.605C166.225 145.622 166.468 146.388 166.955 146.903C167.456 147.404 168.172 147.655 169.103 147.655ZM181.802 154.958V152.488H188.288C189.147 152.488 189.577 152.051 189.577 151.177V150.125H182.94C181.68 150.125 180.757 149.81 180.17 149.18C179.597 148.55 179.31 147.734 179.31 146.731V139.064H182.425V146.366C182.425 147.225 182.854 147.655 183.713 147.655H189.47V139.064H192.691V151.564C192.691 152.581 192.398 153.397 191.811 154.013C191.224 154.643 190.307 154.958 189.061 154.958H181.802Z" fill="#21A9FF"/>
</svg>
