<svg width="710" height="235" viewBox="0 0 710 235" fill="none" xmlns="http://www.w3.org/2000/svg">
<circle cx="78.9386" cy="107.302" r="13.3034" transform="rotate(45.0384 78.9386 107.302)" fill="#21A9FF"/>
<ellipse cx="60.0867" cy="88.4248" rx="10.5027" ry="10.5027" transform="rotate(45.0384 60.0867 88.4248)" fill="#9BD9FE"/>
<ellipse cx="37.8091" cy="84.9442" rx="7.70196" ry="7.70196" transform="rotate(45.0384 37.8091 84.9442)" fill="#1177FF"/>
<ellipse cx="82.9663" cy="137.425" rx="13.3034" ry="13.3034" transform="rotate(0.038399 82.9663 137.425)" fill="#9BD9FE"/>
<circle cx="56.2886" cy="137.406" r="10.5027" transform="rotate(0.038399 56.2886 137.406)" fill="#21A9FF"/>
<ellipse cx="38.0747" cy="150.698" rx="7.70196" ry="7.70196" transform="rotate(0.038399 38.0747 150.698)" fill="#1177FF"/>
<ellipse cx="107.115" cy="155.874" rx="13.3034" ry="13.3034" transform="rotate(-44.9616 107.115 155.874)" fill="#1177FF"/>
<circle cx="88.2378" cy="174.725" r="10.5027" transform="rotate(-44.9616 88.2378 174.725)" fill="#9BD9FE"/>
<ellipse cx="84.7574" cy="197.003" rx="7.70196" ry="7.70196" transform="rotate(-44.9616 84.7574 197.003)" fill="#21A9FF"/>
<ellipse cx="137.235" cy="151.846" rx="13.3034" ry="13.3034" transform="rotate(-89.9616 137.235 151.846)" fill="#1177FF"/>
<circle cx="137.218" cy="178.524" r="10.5027" transform="rotate(-89.9616 137.218 178.524)" fill="#21A9FF"/>
<ellipse cx="150.509" cy="196.738" rx="7.70196" ry="7.70196" transform="rotate(-89.9616 150.509 196.738)" fill="#9BD9FE"/>
<ellipse cx="155.684" cy="127.697" rx="13.3034" ry="13.3034" transform="rotate(-134.962 155.684 127.697)" fill="#21A9FF"/>
<ellipse cx="174.536" cy="146.574" rx="10.5027" ry="10.5027" transform="rotate(-134.962 174.536 146.574)" fill="#9BD9FE"/>
<ellipse cx="196.813" cy="150.054" rx="7.70196" ry="7.70196" transform="rotate(-134.962 196.813 150.054)" fill="#1177FF"/>
<ellipse cx="151.658" cy="97.5759" rx="13.3034" ry="13.3034" transform="rotate(-179.962 151.658 97.5759)" fill="#9BD9FE"/>
<circle cx="178.335" cy="97.5941" r="10.5027" transform="rotate(-179.962 178.335 97.5941)" fill="#21A9FF"/>
<ellipse cx="196.549" cy="84.3024" rx="7.70196" ry="7.70196" transform="rotate(-179.962 196.549 84.3024)" fill="#1177FF"/>
<ellipse cx="127.509" cy="79.1265" rx="13.3034" ry="13.3034" transform="rotate(135.038 127.509 79.1265)" fill="#1177FF"/>
<ellipse cx="146.386" cy="60.2745" rx="10.5027" ry="10.5027" transform="rotate(135.038 146.386 60.2745)" fill="#9BD9FE"/>
<ellipse cx="149.867" cy="37.9973" rx="7.70196" ry="7.70196" transform="rotate(135.038 149.867 37.9973)" fill="#21A9FF"/>
<ellipse cx="97.3879" cy="83.1536" rx="13.3034" ry="13.3034" transform="rotate(90.0384 97.3879 83.1536)" fill="#1177FF"/>
<circle cx="97.4053" cy="56.4759" r="10.5027" transform="rotate(90.0384 97.4053 56.4759)" fill="#21A9FF"/>
<ellipse cx="84.1142" cy="38.2632" rx="7.70196" ry="7.70196" transform="rotate(90.0384 84.1142 38.2632)" fill="#9BD9FE"/>
<path d="M234.623 143.963V48.7722H255.924V126.655H325.553V143.963H234.623Z" fill="#00214D"/>
<path d="M358.73 143.963C350.92 143.963 345.195 142.01 341.556 138.105C338.006 134.199 336.231 129.14 336.231 122.927V75.3989H355.535V120.664C355.535 125.99 358.198 128.652 363.523 128.652H391.215C396.54 128.652 399.203 125.99 399.203 120.664V75.3989H418.507V122.927C418.507 129.14 416.688 134.199 413.049 138.105C409.499 142.01 403.818 143.963 396.008 143.963H358.73Z" fill="#00214D"/>
<path d="M432.456 143.963V75.3989H521.256C529.066 75.3989 534.791 77.3515 538.43 81.2567C542.069 85.0732 543.889 90.1323 543.889 96.4339V143.963H524.584V98.8303C524.584 93.4162 521.833 90.7092 516.33 90.7092H497.824V143.963H478.52V90.7092H451.76V143.963H432.456Z" fill="#00214D"/>
<path d="M557.919 143.963V75.3989H577.223V143.963H557.919Z" fill="#00214D"/>
<path d="M591.852 143.963V75.3989H651.629C659.439 75.3989 665.12 77.3515 668.67 81.2567C672.309 85.0732 674.128 90.1323 674.128 96.4339V143.963H654.824V98.6972C654.824 93.3719 652.161 90.7092 646.836 90.7092H611.156V143.963H591.852Z" fill="#00214D"/>
<path d="M688.062 143.963V75.3989H707.366V143.963H688.062Z" fill="#00214D"/>
<path d="M687.991 64.0825V49.0385H707.562V64.0825H687.991Z" fill="#00214D"/>
<path d="M557.652 64.0825V49.0385H577.223V64.0825H557.652Z" fill="#00214D"/>
<path d="M493.365 188.463C488.666 188.463 485 187.305 482.37 184.991C479.74 182.641 478.424 179.204 478.424 174.679C478.424 170.12 479.74 166.683 482.37 164.368C485 162.018 488.666 160.843 493.365 160.843H506.517C509.604 160.843 511.954 161.58 513.567 163.053C515.215 164.491 516.04 166.56 516.04 169.261C516.04 174.767 512.866 177.52 506.517 177.52H486.631C487.368 180.782 489.612 182.413 493.365 182.413H514.672V188.463H493.365ZM493.365 166.893C489.753 166.893 487.526 168.419 486.684 171.47H506.149C506.851 171.47 507.394 171.26 507.78 170.839C508.201 170.418 508.411 169.839 508.411 169.103C508.411 167.63 507.657 166.893 506.149 166.893H493.365ZM520.783 188.2V161.106H544.404C547.49 161.106 549.735 161.878 551.138 163.421C552.576 164.929 553.295 166.928 553.295 169.418V188.2H545.667V170.313C545.667 168.208 544.614 167.156 542.51 167.156H528.411V188.2H520.783ZM572.689 188.463C567.99 188.463 564.325 187.305 561.694 184.991C559.064 182.641 557.749 179.204 557.749 174.679C557.749 170.12 559.064 166.683 561.694 164.368C564.325 162.018 567.99 160.843 572.689 160.843H585.842C588.928 160.843 591.278 161.58 592.891 163.053C594.54 164.491 595.364 166.56 595.364 169.261C595.364 174.767 592.19 177.52 585.842 177.52H565.956C566.692 180.782 568.937 182.413 572.689 182.413H593.996V188.463H572.689ZM572.689 166.893C569.077 166.893 566.85 168.419 566.008 171.47H585.473C586.175 171.47 586.718 171.26 587.104 170.839C587.525 170.418 587.736 169.839 587.736 169.103C587.736 167.63 586.982 166.893 585.473 166.893H572.689ZM600.107 188.2V161.106H620.835C623.886 161.106 626.131 161.878 627.569 163.421C629.007 164.929 629.726 166.928 629.726 169.418V175.048H621.992V170.365C621.992 168.261 620.94 167.209 618.836 167.209H607.84V188.2H600.107ZM641.358 200.037V193.987H657.246C659.35 193.987 660.402 192.917 660.402 190.778V188.2H648.828C644.129 188.2 640.464 187.042 637.833 184.728C635.203 182.413 633.888 179.063 633.888 174.679C633.888 170.26 635.203 166.893 637.833 164.578C640.464 162.264 644.129 161.106 648.828 161.106H668.031V191.724C668.031 194.215 667.312 196.214 665.874 197.722C664.436 199.265 662.191 200.037 659.14 200.037H641.358ZM648.828 182.15H660.402V167.156H648.828C646.549 167.156 644.795 167.787 643.568 169.05C642.375 170.278 641.779 172.154 641.779 174.679C641.779 177.169 642.375 179.046 643.568 180.308C644.795 181.536 646.549 182.15 648.828 182.15ZM679.934 200.037V193.987H695.822C697.926 193.987 698.978 192.917 698.978 190.778V188.2H682.722C679.636 188.2 677.373 187.428 675.936 185.885C674.533 184.342 673.831 182.343 673.831 179.888V161.106H681.459V178.993C681.459 181.098 682.512 182.15 684.616 182.15H698.715V161.106H706.606V191.724C706.606 194.215 705.887 196.214 704.45 197.722C703.012 199.265 700.767 200.037 697.716 200.037H679.934Z" fill="#21A9FF"/>
</svg>
