<svg width="194" height="64" viewBox="0 0 194 64" fill="none" xmlns="http://www.w3.org/2000/svg">
<circle cx="21.5327" cy="29.2183" r="3.62886" transform="rotate(45.0384 21.5327 29.2183)" fill="#21A9FF"/>
<circle cx="16.3908" cy="24.069" r="2.86489" transform="rotate(45.0384 16.3908 24.069)" fill="#9BD9FE"/>
<circle cx="10.3144" cy="23.1197" r="2.10092" transform="rotate(45.0384 10.3144 23.1197)" fill="#1177FF"/>
<ellipse cx="22.6313" cy="37.435" rx="3.62886" ry="3.62886" transform="rotate(0.038399 22.6313 37.435)" fill="#9BD9FE"/>
<circle cx="15.3542" cy="37.4301" r="2.86489" transform="rotate(0.038399 15.3542 37.4301)" fill="#21A9FF"/>
<ellipse cx="10.3856" cy="41.0558" rx="2.10092" ry="2.10092" transform="rotate(0.038399 10.3856 41.0558)" fill="#1177FF"/>
<circle cx="29.2189" cy="42.4676" r="3.62885" transform="rotate(-44.9616 29.2189 42.4676)" fill="#1177FF"/>
<circle cx="24.0691" cy="47.6098" r="2.86489" transform="rotate(-44.9616 24.0691 47.6098)" fill="#9BD9FE"/>
<circle cx="23.1196" cy="53.6865" r="2.10092" transform="rotate(-44.9616 23.1196 53.6865)" fill="#21A9FF"/>
<ellipse cx="37.435" cy="41.3689" rx="3.62885" ry="3.62886" transform="rotate(-89.9616 37.435 41.3689)" fill="#1177FF"/>
<circle cx="37.4303" cy="48.6459" r="2.86489" transform="rotate(-89.9616 37.4303 48.6459)" fill="#21A9FF"/>
<ellipse cx="41.0564" cy="53.6142" rx="2.10092" ry="2.10092" transform="rotate(-89.9616 41.0564 53.6142)" fill="#9BD9FE"/>
<circle cx="42.4683" cy="34.7816" r="3.62885" transform="rotate(-134.962 42.4683 34.7816)" fill="#21A9FF"/>
<circle cx="47.6101" cy="39.9308" r="2.86489" transform="rotate(-134.962 47.6101 39.9308)" fill="#9BD9FE"/>
<circle cx="53.6866" cy="40.8802" r="2.10092" transform="rotate(-134.962 53.6866 40.8802)" fill="#1177FF"/>
<ellipse cx="41.3687" cy="26.5652" rx="3.62886" ry="3.62885" transform="rotate(-179.962 41.3687 26.5652)" fill="#9BD9FE"/>
<circle cx="48.6458" cy="26.5702" r="2.86489" transform="rotate(-179.962 48.6458 26.5702)" fill="#21A9FF"/>
<ellipse cx="53.6144" cy="22.9445" rx="2.10092" ry="2.10092" transform="rotate(-179.962 53.6144 22.9445)" fill="#1177FF"/>
<circle cx="34.7821" cy="21.5326" r="3.62885" transform="rotate(135.038 34.7821 21.5326)" fill="#1177FF"/>
<circle cx="39.9318" cy="16.3902" r="2.86489" transform="rotate(135.038 39.9318 16.3902)" fill="#9BD9FE"/>
<circle cx="40.8814" cy="10.3135" r="2.10092" transform="rotate(135.038 40.8814 10.3135)" fill="#21A9FF"/>
<ellipse cx="26.566" cy="22.6313" rx="3.62885" ry="3.62886" transform="rotate(90.0384 26.566 22.6313)" fill="#1177FF"/>
<circle cx="26.5707" cy="15.3543" r="2.86489" transform="rotate(90.0384 26.5707 15.3543)" fill="#21A9FF"/>
<ellipse cx="22.9446" cy="10.386" rx="2.10092" ry="2.10092" transform="rotate(90.0384 22.9446 10.386)" fill="#9BD9FE"/>
<path d="M64 39.2185V13.2527H69.8105V34.4974H88.8036V39.2185H64Z" fill="#00214D"/>
<path d="M97.8536 39.2185C95.7231 39.2185 94.1615 38.6858 93.1689 37.6206C92.2005 36.5553 91.7163 35.1753 91.7163 33.4806V20.5159H96.982V32.8632C96.982 34.3158 97.7083 35.0422 99.161 35.0422H106.715C108.167 35.0422 108.894 34.3158 108.894 32.8632V20.5159H114.159V33.4806C114.159 35.1753 113.663 36.5553 112.67 37.6206C111.702 38.6858 110.153 39.2185 108.022 39.2185H97.8536Z" fill="#00214D"/>
<path d="M117.964 39.2185V20.5159H142.187C144.317 20.5159 145.879 21.0485 146.872 22.1138C147.864 23.1548 148.361 24.5348 148.361 26.2538V39.2185H143.095V26.9074C143.095 25.4306 142.344 24.6922 140.843 24.6922H135.795V39.2185H130.53V24.6922H123.23V39.2185H117.964Z" fill="#00214D"/>
<path d="M152.188 39.2185V20.5159H157.453V39.2185H152.188Z" fill="#00214D"/>
<path d="M161.444 39.2185V20.5159H177.75C179.88 20.5159 181.43 21.0485 182.398 22.1138C183.391 23.1548 183.887 24.5348 183.887 26.2538V39.2185H178.621V26.8711C178.621 25.4185 177.895 24.6922 176.442 24.6922H166.71V39.2185H161.444Z" fill="#00214D"/>
<path d="M187.688 39.2185V20.5159H192.953V39.2185H187.688Z" fill="#00214D"/>
<path d="M187.668 17.4291V13.3254H193.007V17.4291H187.668Z" fill="#00214D"/>
<path d="M152.115 17.4291V13.3254H157.453V17.4291H152.115Z" fill="#00214D"/>
<path d="M134.579 50.9911C133.297 50.9911 132.297 50.6754 131.58 50.0439C130.862 49.4029 130.503 48.4654 130.503 47.2312C130.503 45.9875 130.862 45.05 131.58 44.4185C132.297 43.7776 133.297 43.4571 134.579 43.4571H138.166C139.008 43.4571 139.649 43.658 140.089 44.0598C140.539 44.452 140.764 45.0165 140.764 45.7531C140.764 47.2552 139.898 48.0062 138.166 48.0062H132.742C132.943 48.8959 133.555 49.3408 134.579 49.3408H140.391V50.9911H134.579ZM134.579 45.1074C133.593 45.1074 132.986 45.5235 132.756 46.3559H138.066C138.257 46.3559 138.406 46.2985 138.511 46.1837C138.626 46.0689 138.683 45.911 138.683 45.7101C138.683 45.3083 138.477 45.1074 138.066 45.1074H134.579ZM142.058 50.9193V43.5288H148.501C149.343 43.5288 149.955 43.7393 150.338 44.1602C150.73 44.5716 150.926 45.1169 150.926 45.7962V50.9193H148.845V46.0402C148.845 45.4661 148.558 45.1791 147.984 45.1791H144.138V50.9193H142.058ZM156.217 50.9911C154.935 50.9911 153.935 50.6754 153.217 50.0439C152.5 49.4029 152.141 48.4654 152.141 47.2312C152.141 45.9875 152.5 45.05 153.217 44.4185C153.935 43.7776 154.935 43.4571 156.217 43.4571H159.804C160.646 43.4571 161.287 43.658 161.727 44.0598C162.177 44.452 162.402 45.0165 162.402 45.7531C162.402 47.2552 161.536 48.0062 159.804 48.0062H154.38C154.581 48.8959 155.193 49.3408 156.217 49.3408H162.029V50.9911H156.217ZM156.217 45.1074C155.231 45.1074 154.624 45.5235 154.394 46.3559H159.704C159.895 46.3559 160.043 46.2985 160.149 46.1837C160.263 46.0689 160.321 45.911 160.321 45.7101C160.321 45.3083 160.115 45.1074 159.704 45.1074H156.217ZM163.695 50.9193V43.5288H169.35C170.182 43.5288 170.794 43.7393 171.186 44.1602C171.579 44.5716 171.775 45.1169 171.775 45.7962V47.3317H169.665V46.0545C169.665 45.4805 169.378 45.1935 168.804 45.1935H165.805V50.9193H163.695ZM174.948 54.1482V52.4979H179.282C179.856 52.4979 180.143 52.2061 180.143 51.6225V50.9193H176.986C175.704 50.9193 174.704 50.6036 173.986 49.9722C173.269 49.3408 172.91 48.4271 172.91 47.2312C172.91 46.0258 173.269 45.1074 173.986 44.4759C174.704 43.8445 175.704 43.5288 176.986 43.5288H182.223V51.8808C182.223 52.56 182.027 53.1054 181.635 53.5167C181.243 53.9377 180.631 54.1482 179.798 54.1482H174.948ZM176.986 49.269H180.143V45.1791H176.986C176.364 45.1791 175.885 45.3513 175.551 45.6957C175.225 46.0306 175.063 46.5424 175.063 47.2312C175.063 47.9105 175.225 48.4223 175.551 48.7667C175.885 49.1016 176.364 49.269 176.986 49.269ZM185.47 54.1482V52.4979H189.804C190.378 52.4979 190.665 52.2061 190.665 51.6225V50.9193H186.231C185.389 50.9193 184.772 50.7088 184.38 50.2879C183.997 49.8669 183.806 49.3216 183.806 48.6519V43.5288H185.887V48.408C185.887 48.982 186.174 49.269 186.748 49.269H190.593V43.5288H192.746V51.8808C192.746 52.56 192.55 53.1054 192.158 53.5167C191.765 53.9377 191.153 54.1482 190.321 54.1482H185.47Z" fill="#21A9FF"/>
</svg>
