<svg width="846" height="846" viewBox="0 0 846 846" fill="none" xmlns="http://www.w3.org/2000/svg">
<g style="mix-blend-mode:multiply">
<circle cx="247.592" cy="423.478" r="58.7723" transform="rotate(30 247.592 423.478)" fill="#21A9FF"/>
<circle cx="145.521" cy="364.548" r="46.3992" transform="rotate(30 145.521 364.548)" fill="#9BD9FE"/>
<circle cx="46.4847" cy="375.235" r="34.0261" transform="rotate(30 46.4847 375.235)" fill="#1177FF"/>
<ellipse cx="299.306" cy="547.38" rx="58.7723" ry="58.7723" transform="rotate(-15 299.306 547.38)" fill="#9BD9FE"/>
<circle cx="185.462" cy="577.883" r="46.3992" transform="rotate(-15 185.462 577.883)" fill="#21A9FF"/>
<ellipse cx="122.99" cy="655.471" rx="34.0261" ry="34.0261" transform="rotate(-15 122.99 655.471)" fill="#1177FF"/>
<circle cx="423.482" cy="598.415" r="58.7723" transform="rotate(-60 423.482 598.415)" fill="#1177FF"/>
<circle cx="364.552" cy="700.483" r="46.3992" transform="rotate(-60 364.552 700.483)" fill="#9BD9FE"/>
<circle cx="375.238" cy="799.52" r="34.0261" transform="rotate(-60 375.238 799.52)" fill="#21A9FF"/>
<ellipse cx="547.377" cy="546.702" rx="58.7723" ry="58.7723" transform="rotate(-105 547.377 546.702)" fill="#1177FF"/>
<circle cx="577.883" cy="660.543" r="46.3992" transform="rotate(-105 577.883 660.543)" fill="#21A9FF"/>
<ellipse cx="655.467" cy="723.018" rx="34.0261" ry="34.0261" transform="rotate(-105 655.467 723.018)" fill="#9BD9FE"/>
<circle cx="598.416" cy="422.521" r="58.7723" transform="rotate(-150 598.416 422.521)" fill="#21A9FF"/>
<circle cx="700.484" cy="481.452" r="46.3992" transform="rotate(-150 700.484 481.452)" fill="#9BD9FE"/>
<circle cx="799.519" cy="470.765" r="34.0261" transform="rotate(-150 799.519 470.765)" fill="#1177FF"/>
<ellipse cx="546.703" cy="298.624" rx="58.7723" ry="58.7723" transform="rotate(165 546.703 298.624)" fill="#9BD9FE"/>
<circle cx="660.545" cy="268.122" r="46.3992" transform="rotate(165 660.545 268.122)" fill="#21A9FF"/>
<ellipse cx="723.019" cy="190.534" rx="34.0261" ry="34.0261" transform="rotate(165 723.019 190.534)" fill="#1177FF"/>
<circle cx="422.527" cy="247.589" r="58.7723" transform="rotate(120 422.527 247.589)" fill="#1177FF"/>
<circle cx="481.454" cy="145.517" r="46.3992" transform="rotate(120 481.454 145.517)" fill="#9BD9FE"/>
<circle cx="470.77" cy="46.4805" r="34.0261" transform="rotate(120 470.77 46.4805)" fill="#21A9FF"/>
<ellipse cx="298.626" cy="299.301" rx="58.7723" ry="58.7723" transform="rotate(75 298.626 299.301)" fill="#1177FF"/>
<circle cx="268.121" cy="185.46" r="46.3992" transform="rotate(75 268.121 185.46)" fill="#21A9FF"/>
<ellipse cx="190.537" cy="122.986" rx="34.0261" ry="34.0261" transform="rotate(75 190.537 122.986)" fill="#9BD9FE"/>
</g>
</svg>
